<mxfile host="app.diagrams.net" agent="Mozilla/5.0 (Windows NT 10.0; Win64; x64) AppleWebKit/537.36 (KHTML, like Gecko) Chrome/128.0.0.0 Safari/537.36" version="24.7.14">
  <diagram name="第 1 页" id="zXXYn8Vo2Z8vLQ9qXFSI">
    <mxGraphModel dx="1434" dy="738" grid="1" gridSize="10" guides="1" tooltips="1" connect="1" arrows="1" fold="1" page="1" pageScale="1" pageWidth="827" pageHeight="1169" math="0" shadow="0">
      <root>
        <mxCell id="0" />
        <mxCell id="1" parent="0" />
        <mxCell id="62bQP_T0sImy3F21StQi-1" value="发起融资" style="rounded=0;whiteSpace=wrap;html=1;align=left;container=1;" collapsed="1" vertex="1" parent="1">
          <mxGeometry x="200" y="530" width="90" height="30" as="geometry">
            <mxRectangle x="200" y="530" width="470" height="280" as="alternateBounds" />
          </mxGeometry>
        </mxCell>
        <mxCell id="62bQP_T0sImy3F21StQi-2" value="实际开航之前，在中信保中为物流订单投保" style="rounded=0;whiteSpace=wrap;html=1;" vertex="1" parent="62bQP_T0sImy3F21StQi-1">
          <mxGeometry x="240" y="10" width="130" height="50" as="geometry" />
        </mxCell>
        <mxCell id="62bQP_T0sImy3F21StQi-3" value="中信保审核" style="rounded=0;whiteSpace=wrap;html=1;" vertex="1" parent="62bQP_T0sImy3F21StQi-1">
          <mxGeometry x="240" y="80" width="100" height="30" as="geometry" />
        </mxCell>
        <mxCell id="62bQP_T0sImy3F21StQi-4" value="&lt;font style=&quot;font-size: 18px;&quot;&gt;&lt;b&gt;接入业务&lt;/b&gt;&lt;/font&gt;" style="rounded=0;whiteSpace=wrap;html=1;container=1;fillColor=#d5e8d4;strokeColor=#82b366;align=left;" collapsed="1" vertex="1" parent="1">
          <mxGeometry x="188" y="359" width="170" height="50" as="geometry">
            <mxRectangle x="188" y="359" width="550" height="490" as="alternateBounds" />
          </mxGeometry>
        </mxCell>
        <mxCell id="62bQP_T0sImy3F21StQi-5" style="edgeStyle=orthogonalEdgeStyle;rounded=0;orthogonalLoop=1;jettySize=auto;html=1;exitX=0.25;exitY=1;exitDx=0;exitDy=0;entryX=0.75;entryY=0;entryDx=0;entryDy=0;" edge="1" parent="62bQP_T0sImy3F21StQi-4" source="62bQP_T0sImy3F21StQi-7" target="62bQP_T0sImy3F21StQi-11">
          <mxGeometry relative="1" as="geometry" />
        </mxCell>
        <mxCell id="62bQP_T0sImy3F21StQi-6" style="edgeStyle=orthogonalEdgeStyle;rounded=0;orthogonalLoop=1;jettySize=auto;html=1;exitX=0.75;exitY=1;exitDx=0;exitDy=0;entryX=0.25;entryY=0;entryDx=0;entryDy=0;" edge="1" parent="62bQP_T0sImy3F21StQi-4" source="62bQP_T0sImy3F21StQi-7" target="62bQP_T0sImy3F21StQi-10">
          <mxGeometry relative="1" as="geometry" />
        </mxCell>
        <mxCell id="62bQP_T0sImy3F21StQi-7" value="在极羽系统中录入物流订单" style="rounded=0;whiteSpace=wrap;html=1;" vertex="1" parent="62bQP_T0sImy3F21StQi-4">
          <mxGeometry x="340" y="120" width="165" height="50" as="geometry" />
        </mxCell>
        <mxCell id="62bQP_T0sImy3F21StQi-8" style="edgeStyle=orthogonalEdgeStyle;rounded=0;orthogonalLoop=1;jettySize=auto;html=1;exitX=0.5;exitY=1;exitDx=0;exitDy=0;entryX=0.5;entryY=0;entryDx=0;entryDy=0;" edge="1" parent="62bQP_T0sImy3F21StQi-4" source="62bQP_T0sImy3F21StQi-9" target="62bQP_T0sImy3F21StQi-7">
          <mxGeometry relative="1" as="geometry" />
        </mxCell>
        <mxCell id="62bQP_T0sImy3F21StQi-9" value="跟客户收集相关单证" style="rounded=0;whiteSpace=wrap;html=1;" vertex="1" parent="62bQP_T0sImy3F21StQi-4">
          <mxGeometry x="342.5" y="30" width="160" height="50" as="geometry" />
        </mxCell>
        <mxCell id="62bQP_T0sImy3F21StQi-10" value="在Ray中录入报关信息" style="rounded=0;whiteSpace=wrap;html=1;" vertex="1" parent="62bQP_T0sImy3F21StQi-4">
          <mxGeometry x="447" y="210" width="70" height="130" as="geometry" />
        </mxCell>
        <mxCell id="62bQP_T0sImy3F21StQi-11" value="在订舱系统中完成订舱" style="rounded=0;whiteSpace=wrap;html=1;" vertex="1" parent="62bQP_T0sImy3F21StQi-4">
          <mxGeometry x="329" y="210" width="70" height="130" as="geometry" />
        </mxCell>
        <mxCell id="62bQP_T0sImy3F21StQi-12" value="生成托书、报关单、费用通知单（预估）" style="rounded=0;whiteSpace=wrap;html=1;" vertex="1" parent="62bQP_T0sImy3F21StQi-4">
          <mxGeometry x="310" y="430" width="222.5" height="50" as="geometry" />
        </mxCell>
        <mxCell id="62bQP_T0sImy3F21StQi-13" style="edgeStyle=orthogonalEdgeStyle;rounded=0;orthogonalLoop=1;jettySize=auto;html=1;exitX=0.5;exitY=1;exitDx=0;exitDy=0;entryX=0.5;entryY=0;entryDx=0;entryDy=0;" edge="1" parent="62bQP_T0sImy3F21StQi-4" source="62bQP_T0sImy3F21StQi-14" target="62bQP_T0sImy3F21StQi-12">
          <mxGeometry relative="1" as="geometry" />
        </mxCell>
        <mxCell id="62bQP_T0sImy3F21StQi-14" value="极羽中录入费用信息" style="rounded=0;whiteSpace=wrap;html=1;" vertex="1" parent="62bQP_T0sImy3F21StQi-4">
          <mxGeometry x="361.25" y="370" width="120" height="40" as="geometry" />
        </mxCell>
        <mxCell id="62bQP_T0sImy3F21StQi-15" style="edgeStyle=orthogonalEdgeStyle;rounded=0;orthogonalLoop=1;jettySize=auto;html=1;exitX=0.75;exitY=1;exitDx=0;exitDy=0;entryX=0.132;entryY=0.034;entryDx=0;entryDy=0;entryPerimeter=0;" edge="1" parent="62bQP_T0sImy3F21StQi-4" source="62bQP_T0sImy3F21StQi-11" target="62bQP_T0sImy3F21StQi-14">
          <mxGeometry relative="1" as="geometry" />
        </mxCell>
        <mxCell id="62bQP_T0sImy3F21StQi-16" style="edgeStyle=orthogonalEdgeStyle;rounded=0;orthogonalLoop=1;jettySize=auto;html=1;exitX=0.25;exitY=1;exitDx=0;exitDy=0;entryX=0.897;entryY=0.093;entryDx=0;entryDy=0;entryPerimeter=0;" edge="1" parent="62bQP_T0sImy3F21StQi-4" source="62bQP_T0sImy3F21StQi-10" target="62bQP_T0sImy3F21StQi-14">
          <mxGeometry relative="1" as="geometry" />
        </mxCell>
        <mxCell id="62bQP_T0sImy3F21StQi-17" value="完成对账" style="rounded=0;whiteSpace=wrap;html=1;" vertex="1" parent="1">
          <mxGeometry x="210" y="860" width="120" height="60" as="geometry" />
        </mxCell>
        <mxCell id="62bQP_T0sImy3F21StQi-18" value="&lt;font style=&quot;font-size: 18px;&quot;&gt;&lt;b&gt;分配资方&lt;/b&gt;&lt;/font&gt;" style="rounded=0;whiteSpace=wrap;html=1;align=left;fillColor=#fff2cc;strokeColor=#d6b656;container=1;" collapsed="1" vertex="1" parent="1">
          <mxGeometry x="188" y="240" width="170" height="50" as="geometry">
            <mxRectangle x="188" y="240" width="380" height="470" as="alternateBounds" />
          </mxGeometry>
        </mxCell>
        <mxCell id="62bQP_T0sImy3F21StQi-19" value="资方预审核" style="rounded=0;whiteSpace=wrap;html=1;" vertex="1" parent="62bQP_T0sImy3F21StQi-18">
          <mxGeometry x="211.33159268929504" y="10.444444444444445" width="89.29503916449086" height="31.333333333333336" as="geometry" />
        </mxCell>
        <mxCell id="62bQP_T0sImy3F21StQi-20" value="切换资方" style="rounded=0;whiteSpace=wrap;html=1;" vertex="1" parent="62bQP_T0sImy3F21StQi-18">
          <mxGeometry x="267.8851174934726" y="79.37777777777778" width="69.45169712793734" height="31.333333333333336" as="geometry" />
        </mxCell>
        <mxCell id="62bQP_T0sImy3F21StQi-21" style="edgeStyle=orthogonalEdgeStyle;rounded=0;orthogonalLoop=1;jettySize=auto;html=1;exitX=0.75;exitY=1;exitDx=0;exitDy=0;entryX=0.25;entryY=0;entryDx=0;entryDy=0;" edge="1" parent="62bQP_T0sImy3F21StQi-18" source="62bQP_T0sImy3F21StQi-19" target="62bQP_T0sImy3F21StQi-20">
          <mxGeometry relative="1" as="geometry" />
        </mxCell>
        <mxCell id="62bQP_T0sImy3F21StQi-22" value="预审核不通过" style="edgeLabel;html=1;align=center;verticalAlign=middle;resizable=0;points=[];" connectable="0" vertex="1" parent="62bQP_T0sImy3F21StQi-21">
          <mxGeometry x="-0.15" y="-2" relative="1" as="geometry">
            <mxPoint as="offset" />
          </mxGeometry>
        </mxCell>
        <mxCell id="62bQP_T0sImy3F21StQi-23" style="edgeStyle=orthogonalEdgeStyle;rounded=0;orthogonalLoop=1;jettySize=auto;html=1;exitX=1;exitY=0.25;exitDx=0;exitDy=0;entryX=1;entryY=0.5;entryDx=0;entryDy=0;" edge="1" parent="62bQP_T0sImy3F21StQi-18" source="62bQP_T0sImy3F21StQi-20" target="62bQP_T0sImy3F21StQi-19">
          <mxGeometry relative="1" as="geometry" />
        </mxCell>
        <mxCell id="62bQP_T0sImy3F21StQi-24" value="放弃" style="rounded=0;whiteSpace=wrap;html=1;" vertex="1" parent="62bQP_T0sImy3F21StQi-18">
          <mxGeometry x="270.8616187989556" y="223.51111111111112" width="79.37336814621409" height="62.66666666666667" as="geometry" />
        </mxCell>
        <mxCell id="62bQP_T0sImy3F21StQi-25" style="edgeStyle=orthogonalEdgeStyle;rounded=0;orthogonalLoop=1;jettySize=auto;html=1;exitX=0.5;exitY=1;exitDx=0;exitDy=0;entryX=0.4;entryY=0.05;entryDx=0;entryDy=0;entryPerimeter=0;" edge="1" parent="62bQP_T0sImy3F21StQi-18" source="62bQP_T0sImy3F21StQi-20" target="62bQP_T0sImy3F21StQi-24">
          <mxGeometry relative="1" as="geometry" />
        </mxCell>
        <mxCell id="62bQP_T0sImy3F21StQi-26" value="所有资方都不通过" style="edgeLabel;html=1;align=center;verticalAlign=middle;resizable=0;points=[];" connectable="0" vertex="1" parent="62bQP_T0sImy3F21StQi-25">
          <mxGeometry x="-0.1712" relative="1" as="geometry">
            <mxPoint as="offset" />
          </mxGeometry>
        </mxCell>
        <mxCell id="62bQP_T0sImy3F21StQi-27" value="授信结果通知，获得额度" style="rounded=0;whiteSpace=wrap;html=1;" vertex="1" parent="62bQP_T0sImy3F21StQi-18">
          <mxGeometry x="150" y="420" width="98.01" height="41" as="geometry" />
        </mxCell>
        <mxCell id="62bQP_T0sImy3F21StQi-28" style="edgeStyle=orthogonalEdgeStyle;rounded=0;orthogonalLoop=1;jettySize=auto;html=1;exitX=0.5;exitY=1;exitDx=0;exitDy=0;entryX=0.5;entryY=0;entryDx=0;entryDy=0;" edge="1" parent="62bQP_T0sImy3F21StQi-18" source="62bQP_T0sImy3F21StQi-29" target="62bQP_T0sImy3F21StQi-35">
          <mxGeometry relative="1" as="geometry" />
        </mxCell>
        <mxCell id="62bQP_T0sImy3F21StQi-29" value="分配资方&lt;div&gt;（需要上传信用限额审批单，自掌的不需要；需要上传物流框架协议）&lt;/div&gt;" style="rounded=0;whiteSpace=wrap;html=1;" vertex="1" parent="62bQP_T0sImy3F21StQi-18">
          <mxGeometry x="153.78" y="200" width="90.22" height="110" as="geometry" />
        </mxCell>
        <mxCell id="62bQP_T0sImy3F21StQi-30" value="分配服务方案" style="rounded=0;whiteSpace=wrap;html=1;" vertex="1" parent="62bQP_T0sImy3F21StQi-18">
          <mxGeometry x="156.73107049608353" y="146.22222222222223" width="79.37336814621409" height="31.333333333333336" as="geometry" />
        </mxCell>
        <mxCell id="62bQP_T0sImy3F21StQi-31" style="edgeStyle=orthogonalEdgeStyle;rounded=0;orthogonalLoop=1;jettySize=auto;html=1;exitX=0.25;exitY=1;exitDx=0;exitDy=0;entryX=0.25;entryY=0;entryDx=0;entryDy=0;" edge="1" parent="62bQP_T0sImy3F21StQi-18" source="62bQP_T0sImy3F21StQi-30" target="62bQP_T0sImy3F21StQi-29">
          <mxGeometry relative="1" as="geometry" />
        </mxCell>
        <mxCell id="62bQP_T0sImy3F21StQi-32" style="edgeStyle=orthogonalEdgeStyle;rounded=0;orthogonalLoop=1;jettySize=auto;html=1;exitX=0;exitY=0.5;exitDx=0;exitDy=0;entryX=0.344;entryY=-0.007;entryDx=0;entryDy=0;entryPerimeter=0;" edge="1" parent="62bQP_T0sImy3F21StQi-18">
          <mxGeometry relative="1" as="geometry">
            <mxPoint x="210.33159268929512" y="26.111111111111086" as="sourcePoint" />
            <mxPoint x="187.03550913838103" y="146.00288888888895" as="targetPoint" />
          </mxGeometry>
        </mxCell>
        <mxCell id="62bQP_T0sImy3F21StQi-33" value="预审核通过" style="edgeLabel;html=1;align=center;verticalAlign=middle;resizable=0;points=[];" connectable="0" vertex="1" parent="62bQP_T0sImy3F21StQi-32">
          <mxGeometry x="-0.2233" relative="1" as="geometry">
            <mxPoint as="offset" />
          </mxGeometry>
        </mxCell>
        <mxCell id="62bQP_T0sImy3F21StQi-34" style="edgeStyle=orthogonalEdgeStyle;rounded=0;orthogonalLoop=1;jettySize=auto;html=1;exitX=0.5;exitY=1;exitDx=0;exitDy=0;entryX=0.5;entryY=0;entryDx=0;entryDy=0;" edge="1" parent="62bQP_T0sImy3F21StQi-18" source="62bQP_T0sImy3F21StQi-35" target="62bQP_T0sImy3F21StQi-27">
          <mxGeometry relative="1" as="geometry" />
        </mxCell>
        <mxCell id="62bQP_T0sImy3F21StQi-35" value="企业去资方H5注册，签署三方协议(暗保理不需要)" style="rounded=0;whiteSpace=wrap;html=1;" vertex="1" parent="62bQP_T0sImy3F21StQi-18">
          <mxGeometry x="145.52" y="340" width="101.79" height="50" as="geometry" />
        </mxCell>
        <mxCell id="62bQP_T0sImy3F21StQi-36" value="&lt;h1 style=&quot;margin-top: 0px;&quot;&gt;亿海融物流业务梳理&lt;/h1&gt;&lt;div&gt;&lt;br&gt;&lt;/div&gt;" style="text;html=1;whiteSpace=wrap;overflow=hidden;rounded=0;" vertex="1" parent="1">
          <mxGeometry x="290" y="40" width="230" height="50" as="geometry" />
        </mxCell>
        <mxCell id="62bQP_T0sImy3F21StQi-37" value="&lt;font style=&quot;font-size: 18px;&quot;&gt;&lt;b&gt;获客&lt;/b&gt;&lt;/font&gt;" style="rounded=0;whiteSpace=wrap;html=1;shadow=1;container=1;fillColor=#dae8fc;strokeColor=#6c8ebf;align=left;fontSize=11;" vertex="1" parent="1">
          <mxGeometry x="190" y="120" width="765.1800000000001" height="1351" as="geometry">
            <mxRectangle x="190" y="120" width="170" height="50" as="alternateBounds" />
          </mxGeometry>
        </mxCell>
        <mxCell id="62bQP_T0sImy3F21StQi-38" value="报关数据筛选&lt;div&gt;（商品种类，报关金额，箱量，贸易国等等）&lt;/div&gt;" style="rounded=0;whiteSpace=wrap;html=1;" vertex="1" parent="62bQP_T0sImy3F21StQi-37">
          <mxGeometry x="231.28" y="27.007105263157893" width="162.78" height="58.25605263157894" as="geometry" />
        </mxCell>
        <mxCell id="62bQP_T0sImy3F21StQi-39" value="符合条件的企业名单" style="rounded=0;whiteSpace=wrap;html=1;" vertex="1" parent="62bQP_T0sImy3F21StQi-37">
          <mxGeometry x="231.28" y="117.23684210526315" width="154.98" height="53.28947368421052" as="geometry" />
        </mxCell>
        <mxCell id="62bQP_T0sImy3F21StQi-40" style="edgeStyle=orthogonalEdgeStyle;rounded=0;orthogonalLoop=1;jettySize=auto;html=1;exitX=0.5;exitY=1;exitDx=0;exitDy=0;entryX=0.5;entryY=0;entryDx=0;entryDy=0;" edge="1" parent="62bQP_T0sImy3F21StQi-37" source="62bQP_T0sImy3F21StQi-38" target="62bQP_T0sImy3F21StQi-39">
          <mxGeometry relative="1" as="geometry" />
        </mxCell>
        <mxCell id="62bQP_T0sImy3F21StQi-41" value="探迹拓客&lt;div&gt;（爬取用户联系方式&lt;span style=&quot;background-color: initial;&quot;&gt;）&lt;/span&gt;&lt;/div&gt;" style="rounded=0;whiteSpace=wrap;html=1;" vertex="1" parent="62bQP_T0sImy3F21StQi-37">
          <mxGeometry x="235.18" y="199.99789473684208" width="147.18" height="53.28947368421052" as="geometry" />
        </mxCell>
        <mxCell id="62bQP_T0sImy3F21StQi-42" style="edgeStyle=orthogonalEdgeStyle;rounded=0;orthogonalLoop=1;jettySize=auto;html=1;entryX=0.5;entryY=0;entryDx=0;entryDy=0;" edge="1" parent="62bQP_T0sImy3F21StQi-37" source="62bQP_T0sImy3F21StQi-39" target="62bQP_T0sImy3F21StQi-41">
          <mxGeometry relative="1" as="geometry" />
        </mxCell>
        <mxCell id="62bQP_T0sImy3F21StQi-43" value="建联、电邀" style="rounded=0;whiteSpace=wrap;html=1;" vertex="1" parent="62bQP_T0sImy3F21StQi-37">
          <mxGeometry x="250.01" y="340" width="111.51" height="37.63" as="geometry" />
        </mxCell>
        <mxCell id="62bQP_T0sImy3F21StQi-44" style="edgeStyle=orthogonalEdgeStyle;rounded=0;orthogonalLoop=1;jettySize=auto;html=1;entryX=0.5;entryY=0;entryDx=0;entryDy=0;" edge="1" parent="62bQP_T0sImy3F21StQi-37" source="62bQP_T0sImy3F21StQi-41" target="62bQP_T0sImy3F21StQi-43">
          <mxGeometry relative="1" as="geometry" />
        </mxCell>
        <mxCell id="62bQP_T0sImy3F21StQi-45" value="" style="edgeStyle=orthogonalEdgeStyle;rounded=0;orthogonalLoop=1;jettySize=auto;html=1;" edge="1" parent="62bQP_T0sImy3F21StQi-37" source="62bQP_T0sImy3F21StQi-46" target="62bQP_T0sImy3F21StQi-82">
          <mxGeometry relative="1" as="geometry" />
        </mxCell>
        <mxCell id="62bQP_T0sImy3F21StQi-46" value="&lt;div&gt;有意向的企业&lt;span style=&quot;background-color: initial;&quot;&gt;归属到销售经理&lt;/span&gt;&lt;/div&gt;" style="rounded=0;whiteSpace=wrap;html=1;" vertex="1" parent="62bQP_T0sImy3F21StQi-37">
          <mxGeometry x="249.73" y="411" width="118.08" height="43.03" as="geometry" />
        </mxCell>
        <mxCell id="62bQP_T0sImy3F21StQi-47" style="edgeStyle=orthogonalEdgeStyle;rounded=0;orthogonalLoop=1;jettySize=auto;html=1;exitX=0.5;exitY=1;exitDx=0;exitDy=0;entryX=0.5;entryY=0;entryDx=0;entryDy=0;" edge="1" parent="62bQP_T0sImy3F21StQi-37" source="62bQP_T0sImy3F21StQi-43" target="62bQP_T0sImy3F21StQi-46">
          <mxGeometry relative="1" as="geometry" />
        </mxCell>
        <mxCell id="62bQP_T0sImy3F21StQi-48" style="edgeStyle=orthogonalEdgeStyle;rounded=0;orthogonalLoop=1;jettySize=auto;html=1;exitX=0.5;exitY=1;exitDx=0;exitDy=0;entryX=0.5;entryY=0;entryDx=0;entryDy=0;" edge="1" parent="62bQP_T0sImy3F21StQi-37" source="62bQP_T0sImy3F21StQi-49" target="62bQP_T0sImy3F21StQi-50">
          <mxGeometry relative="1" as="geometry" />
        </mxCell>
        <mxCell id="62bQP_T0sImy3F21StQi-49" value="如果企业有意向，提交限额审批申请" style="rounded=0;whiteSpace=wrap;html=1;" vertex="1" parent="62bQP_T0sImy3F21StQi-37">
          <mxGeometry x="251.95" y="570" width="122.12" height="45.79" as="geometry" />
        </mxCell>
        <mxCell id="62bQP_T0sImy3F21StQi-50" value="签署物流框架协议" style="rounded=0;whiteSpace=wrap;html=1;" vertex="1" parent="62bQP_T0sImy3F21StQi-37">
          <mxGeometry x="253.01" y="650.14" width="120" height="39.86" as="geometry" />
        </mxCell>
        <mxCell id="62bQP_T0sImy3F21StQi-51" value="导入销售易CRM公海池" style="rounded=0;whiteSpace=wrap;html=1;" vertex="1" parent="62bQP_T0sImy3F21StQi-37">
          <mxGeometry x="240" y="270" width="150" height="42.63" as="geometry" />
        </mxCell>
        <mxCell id="62bQP_T0sImy3F21StQi-52" value="找客户二次确认&lt;div&gt;（涉及到注册、授权，签三方协议&lt;/div&gt;&lt;div&gt;）&lt;/div&gt;" style="rounded=0;whiteSpace=wrap;html=1;" vertex="1" parent="62bQP_T0sImy3F21StQi-37">
          <mxGeometry x="250.01" y="850" width="130" height="61.52" as="geometry" />
        </mxCell>
        <mxCell id="62bQP_T0sImy3F21StQi-53" style="edgeStyle=orthogonalEdgeStyle;rounded=0;orthogonalLoop=1;jettySize=auto;html=1;exitX=0.5;exitY=1;exitDx=0;exitDy=0;entryX=0.5;entryY=0;entryDx=0;entryDy=0;" edge="1" parent="62bQP_T0sImy3F21StQi-37">
          <mxGeometry relative="1" as="geometry">
            <mxPoint x="313.18000000000006" y="790" as="sourcePoint" />
            <mxPoint x="314.01" y="850" as="targetPoint" />
          </mxGeometry>
        </mxCell>
        <mxCell id="62bQP_T0sImy3F21StQi-54" value="&lt;font style=&quot;font-size: 18px;&quot;&gt;&lt;b&gt;保险限额审批通过&lt;/b&gt;&lt;/font&gt;" style="rounded=0;whiteSpace=wrap;html=1;container=1;align=left;fillColor=#ffe6cc;strokeColor=#d79b00;" vertex="1" collapsed="1" parent="62bQP_T0sImy3F21StQi-37">
          <mxGeometry x="235.18" y="740" width="170" height="50" as="geometry">
            <mxRectangle x="235.18" y="740" width="530" height="611" as="alternateBounds" />
          </mxGeometry>
        </mxCell>
        <mxCell id="62bQP_T0sImy3F21StQi-55" value="" style="edgeStyle=orthogonalEdgeStyle;rounded=0;orthogonalLoop=1;jettySize=auto;html=1;" edge="1" parent="62bQP_T0sImy3F21StQi-54" source="62bQP_T0sImy3F21StQi-56" target="62bQP_T0sImy3F21StQi-59">
          <mxGeometry relative="1" as="geometry" />
        </mxCell>
        <mxCell id="62bQP_T0sImy3F21StQi-56" value="销售人员在销售易系统提交信用限额申请" style="rounded=0;whiteSpace=wrap;html=1;" vertex="1" parent="62bQP_T0sImy3F21StQi-54">
          <mxGeometry x="255.0214676997483" y="27.772727272727273" width="218.58982945692716" height="55.54545454545455" as="geometry" />
        </mxCell>
        <mxCell id="62bQP_T0sImy3F21StQi-57" value="" style="edgeStyle=orthogonalEdgeStyle;rounded=0;orthogonalLoop=1;jettySize=auto;html=1;" edge="1" parent="62bQP_T0sImy3F21StQi-54" source="62bQP_T0sImy3F21StQi-59" target="62bQP_T0sImy3F21StQi-77">
          <mxGeometry relative="1" as="geometry" />
        </mxCell>
        <mxCell id="62bQP_T0sImy3F21StQi-58" value="审核时间大概一周" style="edgeLabel;html=1;align=center;verticalAlign=middle;resizable=0;points=[];" connectable="0" vertex="1" parent="62bQP_T0sImy3F21StQi-57">
          <mxGeometry x="-0.0835" y="1" relative="1" as="geometry">
            <mxPoint as="offset" />
          </mxGeometry>
        </mxCell>
        <mxCell id="62bQP_T0sImy3F21StQi-59" value="包明芸去中信保提交限额申请" style="rounded=0;whiteSpace=wrap;html=1;" vertex="1" parent="62bQP_T0sImy3F21StQi-54">
          <mxGeometry x="264.83" y="124.69" width="198.97" height="55.31" as="geometry" />
        </mxCell>
        <mxCell id="62bQP_T0sImy3F21StQi-60" value="审批通过，额度大于0" style="rounded=0;whiteSpace=wrap;html=1;" vertex="1" parent="62bQP_T0sImy3F21StQi-54">
          <mxGeometry x="214.38" y="313.49" width="43.62" height="86.51" as="geometry" />
        </mxCell>
        <mxCell id="62bQP_T0sImy3F21StQi-61" value="" style="edgeStyle=orthogonalEdgeStyle;rounded=0;orthogonalLoop=1;jettySize=auto;html=1;" edge="1" parent="62bQP_T0sImy3F21StQi-54" source="62bQP_T0sImy3F21StQi-62" target="62bQP_T0sImy3F21StQi-70">
          <mxGeometry relative="1" as="geometry" />
        </mxCell>
        <mxCell id="62bQP_T0sImy3F21StQi-62" value="&#xa;&lt;span style=&quot;color: rgb(0, 0, 0); font-family: Helvetica; font-size: 12px; font-style: normal; font-variant-ligatures: normal; font-variant-caps: normal; font-weight: 400; letter-spacing: normal; orphans: 2; text-align: center; text-indent: 0px; text-transform: none; white-space: normal; widows: 2; word-spacing: 0px; -webkit-text-stroke-width: 0px; background-color: rgb(251, 251, 251); text-decoration-style: initial; text-decoration-color: initial; display: inline !important; float: none;&quot;&gt;审批限额为0&lt;/span&gt;&#xa;&#xa;" style="rounded=0;whiteSpace=wrap;html=1;" vertex="1" parent="62bQP_T0sImy3F21StQi-54">
          <mxGeometry x="463.79523466416623" y="318.4846938775511" width="37.54700685979372" height="62.34693877551021" as="geometry" />
        </mxCell>
        <mxCell id="62bQP_T0sImy3F21StQi-63" value="" style="edgeStyle=orthogonalEdgeStyle;rounded=0;orthogonalLoop=1;jettySize=auto;html=1;" edge="1" parent="62bQP_T0sImy3F21StQi-54" source="62bQP_T0sImy3F21StQi-65" target="62bQP_T0sImy3F21StQi-68">
          <mxGeometry relative="1" as="geometry" />
        </mxCell>
        <mxCell id="62bQP_T0sImy3F21StQi-64" value="" style="edgeStyle=orthogonalEdgeStyle;rounded=0;orthogonalLoop=1;jettySize=auto;html=1;" edge="1" parent="62bQP_T0sImy3F21StQi-54" source="62bQP_T0sImy3F21StQi-65" target="62bQP_T0sImy3F21StQi-62">
          <mxGeometry relative="1" as="geometry" />
        </mxCell>
        <mxCell id="62bQP_T0sImy3F21StQi-65" value="审批拒绝" style="rounded=0;whiteSpace=wrap;html=1;" vertex="1" parent="62bQP_T0sImy3F21StQi-54">
          <mxGeometry x="341.8156822780437" y="318.7346938775511" width="46.36159502541579" height="62.34693877551021" as="geometry" />
        </mxCell>
        <mxCell id="62bQP_T0sImy3F21StQi-66" value="" style="edgeStyle=orthogonalEdgeStyle;rounded=0;orthogonalLoop=1;jettySize=auto;html=1;" edge="1" parent="62bQP_T0sImy3F21StQi-54" source="62bQP_T0sImy3F21StQi-68" target="62bQP_T0sImy3F21StQi-70">
          <mxGeometry relative="1" as="geometry" />
        </mxCell>
        <mxCell id="62bQP_T0sImy3F21StQi-67" value="否" style="edgeLabel;html=1;align=center;verticalAlign=middle;resizable=0;points=[];" connectable="0" vertex="1" parent="62bQP_T0sImy3F21StQi-66">
          <mxGeometry x="0.0378" y="-1" relative="1" as="geometry">
            <mxPoint as="offset" />
          </mxGeometry>
        </mxCell>
        <mxCell id="62bQP_T0sImy3F21StQi-68" value="是否使用自掌限额" style="rounded=0;whiteSpace=wrap;html=1;" vertex="1" parent="62bQP_T0sImy3F21StQi-54">
          <mxGeometry x="315.71652766125453" y="425.2061224489796" width="98.46444258007206" height="48.63061224489796" as="geometry" />
        </mxCell>
        <mxCell id="62bQP_T0sImy3F21StQi-69" value="进入接入业务节点" style="rounded=0;whiteSpace=wrap;html=1;" vertex="1" parent="62bQP_T0sImy3F21StQi-54">
          <mxGeometry x="208.24838375363964" y="527.6795510204082" width="200.32917139614077" height="55.5511224489796" as="geometry" />
        </mxCell>
        <mxCell id="62bQP_T0sImy3F21StQi-70" value="放弃该客户" style="rounded=0;whiteSpace=wrap;html=1;" vertex="1" parent="62bQP_T0sImy3F21StQi-54">
          <mxGeometry x="445.159107733307" y="422.8868163265306" width="73.45926072151212" height="53.269224489795924" as="geometry" />
        </mxCell>
        <mxCell id="62bQP_T0sImy3F21StQi-71" style="edgeStyle=orthogonalEdgeStyle;rounded=0;orthogonalLoop=1;jettySize=auto;html=1;" edge="1" parent="62bQP_T0sImy3F21StQi-54" source="62bQP_T0sImy3F21StQi-77" target="62bQP_T0sImy3F21StQi-60">
          <mxGeometry relative="1" as="geometry" />
        </mxCell>
        <mxCell id="62bQP_T0sImy3F21StQi-72" value="已受理" style="edgeLabel;html=1;align=center;verticalAlign=middle;resizable=0;points=[];" connectable="0" vertex="1" parent="62bQP_T0sImy3F21StQi-71">
          <mxGeometry x="0.3164" y="-1" relative="1" as="geometry">
            <mxPoint as="offset" />
          </mxGeometry>
        </mxCell>
        <mxCell id="62bQP_T0sImy3F21StQi-73" style="edgeStyle=orthogonalEdgeStyle;rounded=0;orthogonalLoop=1;jettySize=auto;html=1;exitX=1;exitY=0.5;exitDx=0;exitDy=0;entryX=0.5;entryY=0;entryDx=0;entryDy=0;" edge="1" parent="62bQP_T0sImy3F21StQi-54">
          <mxGeometry relative="1" as="geometry">
            <mxPoint x="436.15479149188195" y="250.70306122448983" as="sourcePoint" />
            <mxPoint x="481.5687380940626" y="311.4846938775511" as="targetPoint" />
          </mxGeometry>
        </mxCell>
        <mxCell id="62bQP_T0sImy3F21StQi-74" value="已受理" style="edgeLabel;html=1;align=center;verticalAlign=middle;resizable=0;points=[];" connectable="0" vertex="1" parent="62bQP_T0sImy3F21StQi-73">
          <mxGeometry x="0.3884" y="3" relative="1" as="geometry">
            <mxPoint as="offset" />
          </mxGeometry>
        </mxCell>
        <mxCell id="62bQP_T0sImy3F21StQi-75" value="" style="edgeStyle=orthogonalEdgeStyle;rounded=0;orthogonalLoop=1;jettySize=auto;html=1;" edge="1" parent="62bQP_T0sImy3F21StQi-54" source="62bQP_T0sImy3F21StQi-77" target="62bQP_T0sImy3F21StQi-65">
          <mxGeometry relative="1" as="geometry" />
        </mxCell>
        <mxCell id="62bQP_T0sImy3F21StQi-76" value="未受理" style="edgeLabel;html=1;align=center;verticalAlign=middle;resizable=0;points=[];" connectable="0" vertex="1" parent="62bQP_T0sImy3F21StQi-75">
          <mxGeometry x="-0.226" relative="1" as="geometry">
            <mxPoint as="offset" />
          </mxGeometry>
        </mxCell>
        <mxCell id="62bQP_T0sImy3F21StQi-77" value="中信保（限额申请跟踪&lt;span style=&quot;background-color: initial;&quot;&gt;）&lt;/span&gt;" style="rounded=0;whiteSpace=wrap;html=1;" vertex="1" parent="62bQP_T0sImy3F21StQi-54">
          <mxGeometry x="293.2965276612546" y="230.99897959183676" width="143.85826383062727" height="37.40816326530612" as="geometry" />
        </mxCell>
        <mxCell id="62bQP_T0sImy3F21StQi-78" style="edgeStyle=orthogonalEdgeStyle;rounded=0;orthogonalLoop=1;jettySize=auto;html=1;entryX=0.137;entryY=0.041;entryDx=0;entryDy=0;entryPerimeter=0;" edge="1" parent="62bQP_T0sImy3F21StQi-54" source="62bQP_T0sImy3F21StQi-60" target="62bQP_T0sImy3F21StQi-69">
          <mxGeometry relative="1" as="geometry" />
        </mxCell>
        <mxCell id="62bQP_T0sImy3F21StQi-79" style="edgeStyle=orthogonalEdgeStyle;rounded=0;orthogonalLoop=1;jettySize=auto;html=1;entryX=0.787;entryY=-0.012;entryDx=0;entryDy=0;entryPerimeter=0;" edge="1" parent="62bQP_T0sImy3F21StQi-54" source="62bQP_T0sImy3F21StQi-68" target="62bQP_T0sImy3F21StQi-69">
          <mxGeometry relative="1" as="geometry" />
        </mxCell>
        <mxCell id="62bQP_T0sImy3F21StQi-80" style="edgeStyle=orthogonalEdgeStyle;rounded=0;orthogonalLoop=1;jettySize=auto;html=1;exitX=0.5;exitY=1;exitDx=0;exitDy=0;entryX=0.458;entryY=0.08;entryDx=0;entryDy=0;entryPerimeter=0;" edge="1" parent="62bQP_T0sImy3F21StQi-37" source="62bQP_T0sImy3F21StQi-50" target="62bQP_T0sImy3F21StQi-54">
          <mxGeometry relative="1" as="geometry" />
        </mxCell>
        <mxCell id="62bQP_T0sImy3F21StQi-81" style="edgeStyle=orthogonalEdgeStyle;rounded=0;orthogonalLoop=1;jettySize=auto;html=1;exitX=0.5;exitY=1;exitDx=0;exitDy=0;entryX=0.5;entryY=0;entryDx=0;entryDy=0;" edge="1" parent="62bQP_T0sImy3F21StQi-37" source="62bQP_T0sImy3F21StQi-82" target="62bQP_T0sImy3F21StQi-49">
          <mxGeometry relative="1" as="geometry" />
        </mxCell>
        <mxCell id="62bQP_T0sImy3F21StQi-82" value="&lt;span style=&quot;background-color: initial;&quot;&gt;销售看到归属的企业，进行面访&lt;/span&gt;" style="rounded=0;whiteSpace=wrap;html=1;" vertex="1" parent="62bQP_T0sImy3F21StQi-37">
          <mxGeometry x="247.73" y="490" width="122.12" height="50" as="geometry" />
        </mxCell>
      </root>
    </mxGraphModel>
  </diagram>
</mxfile>
